<?xml version="1.0" encoding="UTF-8" standalone="no"?>
<svg
   xmlns:osb="http://www.openswatchbook.org/uri/2009/osb"
   xmlns:dc="http://purl.org/dc/elements/1.1/"
   xmlns:cc="http://creativecommons.org/ns#"
   xmlns:rdf="http://www.w3.org/1999/02/22-rdf-syntax-ns#"
   xmlns:svg="http://www.w3.org/2000/svg"
   xmlns="http://www.w3.org/2000/svg"
   xmlns:sodipodi="http://sodipodi.sourceforge.net/DTD/sodipodi-0.dtd"
   xmlns:inkscape="http://www.inkscape.org/namespaces/inkscape"
   width="210mm"
   height="297mm"
   viewBox="0 0 210 297"
   version="1.1"
   id="svg29"
   inkscape:version="1.0.1 (3bc2e813f5, 2020-09-07)"
   sodipodi:docname="jolatre kristjan logian.svg">
  <defs
     id="defs23">
    <linearGradient
       id="linearGradient885"
       osb:paint="solid">
      <stop
         style="stop-color:#f2f2f2;stop-opacity:1;"
         offset="0"
         id="stop883" />
    </linearGradient>
  </defs>
  <sodipodi:namedview
     id="base"
     pagecolor="#ffffff"
     bordercolor="#666666"
     borderopacity="1.0"
     inkscape:pageopacity="0.0"
     inkscape:pageshadow="2"
     inkscape:zoom="0.94"
     inkscape:cx="345.74468"
     inkscape:cy="390.15859"
     inkscape:document-units="mm"
     inkscape:current-layer="layer1"
     inkscape:document-rotation="0"
     showgrid="false"
     inkscape:window-width="1920"
     inkscape:window-height="1017"
     inkscape:window-x="-8"
     inkscape:window-y="-8"
     inkscape:window-maximized="1" />
  <metadata
     id="metadata26">
    <rdf:RDF>
      <cc:Work
         rdf:about="">
        <dc:format>image/svg+xml</dc:format>
        <dc:type
           rdf:resource="http://purl.org/dc/dcmitype/StillImage" />
        <dc:title />
      </cc:Work>
    </rdf:RDF>
  </metadata>
  <g
     inkscape:label="Layer 1"
     inkscape:groupmode="layer"
     id="layer1">
    <path
       id="path925"
       style="fill:none;stroke:#000000;stroke-width:0.14574px;stroke-linecap:butt;stroke-linejoin:miter;stroke-opacity:1"
       d="m 138.2732,62.306114 -5.11712,2.741856 -5.44421,-2.239279 1.48301,4.988487 -4.18491,3.713926 6.03359,0.341091 1.44291,2.289694 C 114.50224,90.156911 100.35185,103.10487 86.011182,116.20504 l 27.564498,-0.42906 -32.606938,29.89154 32.270588,-0.42906 -40.170138,33.46709 55.969248,-0.71501 0.67238,21.31017 7.05899,-0.28594 7.0593,0.28594 0.67239,-21.31017 55.96925,0.71501 -40.17015,-33.46709 32.27059,0.42906 -32.60694,-29.89154 27.5645,0.42906 -52.61132,-41.979914 1.22968,-2.615817 5.9512,-0.911414 -4.64562,-3.293799 z"
       sodipodi:nodetypes="ccccccccccccccccccccccccccc" />
    <ellipse
       style="fill:#f2f2f2;fill-opacity:0;stroke:#ff0000;stroke-width:0.109538;stroke-opacity:1"
       id="path946"
       cx="133.59108"
       cy="69.062103"
       rx="1.4334557"
       ry="1.2197835" />
    <g
       id="box9587"
       transform="matrix(1.365328,0,0,1.2907321,5.6502932,8.6277084)">
      <path
         style="fill:none;stroke:#0000ff;stroke-width:0.1;stroke-linecap:butt;stroke-linejoin:miter"
         id="box9587-lid"
         d="M 0,0 H 1.14527 V -0.820208 H 3.54164 V 0 H 4.68691 5.83218 V -0.820208 H 8.22855 V 0 h 1.14527 1.14527 v -0.820208 h 2.39637 V 0 h 1.14527 1.14527 v -0.820208 h 2.39637 V 0 h 1.14527 1.14527 v -0.820208 h 2.39637 V 0 h 1.14527 1.14527 v -0.820208 h 2.39637 V 0 h 1.14527 1.14527 V -0.820208 H 31.6631 V 0 h 1.14527 v 0.535781 h 0.820208 v 1.1774 H 32.80837 v 0.535781 0.535781 h 0.820208 v 1.1774 H 32.80837 v 0.535781 0.535781 h 0.820208 v 1.1774 H 32.80837 v 0.535781 0.535781 h 0.820208 v 1.1774 H 32.80837 V 8.995848 H 31.6631 V 9.816056 H 29.26673 V 8.995848 H 28.12146 26.97619 V 9.816056 H 24.57982 V 8.995848 H 23.43455 22.28928 V 9.816056 H 19.89291 V 8.995848 H 18.74764 17.60237 V 9.816056 H 15.206 V 8.995848 H 14.06073 12.91546 V 9.816056 H 10.51909 V 8.995848 H 9.37382 8.22855 V 9.816056 H 5.83218 V 8.995848 H 4.68691 3.54164 V 9.816056 H 1.14527 V 8.995848 H 0 V 8.460067 h -0.820208 v -1.1774 H 0 V 6.746886 6.211105 h -0.820208 v -1.1774 H 0 V 4.497924 3.962143 h -0.820208 v -1.1774 H 0 V 2.248962 1.713181 h -0.820208 v -1.1774 H 0 V 0" />
      <path
         style="fill:none;stroke:#0000ff;stroke-width:0.1;stroke-linecap:butt;stroke-linejoin:miter"
         id="box9587-longside1"
         d="M -0.820208,11.4565 V 10.636292 H 0 1.19818 V 11.4565 H 3.48872 V 10.636292 H 4.6869 5.88508 V 11.4565 H 8.17562 V 10.636292 H 9.3738 10.57198 V 11.4565 h 2.29054 v -0.820208 h 1.19818 1.19818 V 11.4565 h 2.29054 v -0.820208 h 1.19818 1.19818 V 11.4565 h 2.29054 v -0.820208 h 1.19818 1.19818 V 11.4565 h 2.29054 v -0.820208 h 1.19818 1.19818 V 11.4565 h 2.29054 v -0.820208 h 1.19818 0.820208 V 11.4565 12.329625 H 32.8083 v 1.64042 h 0.820208 v 0.873125 0.873125 H 32.8083 v 1.64042 h 0.820208 v 0.873125 0.873125 H 32.8083 v 1.64042 h 0.820208 v 0.873125 0.873125 H 32.8083 v 1.64042 h 0.820208 v 0.873125 0.873125 H 32.8083 v 1.64042 h 0.820208 v 0.873125 0.820208 H 32.8083 31.61012 V 28.38985 h -2.29054 v 0.820208 H 28.1214 26.92322 V 28.38985 h -2.29054 v 0.820208 H 23.4345 22.23632 V 28.38985 h -2.29054 v 0.820208 H 18.7476 17.54942 V 28.38985 h -2.29054 v 0.820208 H 14.0607 12.86252 V 28.38985 h -2.29054 v 0.820208 H 9.3738 8.17562 V 28.38985 H 5.88508 v 0.820208 H 4.6869 3.48872 V 28.38985 H 1.19818 v 0.820208 H 0 -0.820208 V 28.38985 27.516725 H 0 v -1.64042 H -0.820208 V 25.00318 24.130055 H 0 v -1.64042 H -0.820208 V 21.61651 20.743385 H 0 v -1.64042 H -0.820208 V 18.22984 17.356715 H 0 v -1.64042 H -0.820208 V 14.84317 13.970045 H 0 v -1.64042 H -0.820208 V 11.4565" />
      <path
         style="fill:none;stroke:#0000ff;stroke-width:0.1;stroke-linecap:butt;stroke-linejoin:miter"
         id="box9587-base"
         d="M 0,30.8504 H 1.14527 V 30.030192 H 3.54164 V 30.8504 H 4.68691 5.83218 V 30.030192 H 8.22855 V 30.8504 h 1.14527 1.14527 v -0.820208 h 2.39637 V 30.8504 h 1.14527 1.14527 v -0.820208 h 2.39637 V 30.8504 h 1.14527 1.14527 v -0.820208 h 2.39637 V 30.8504 h 1.14527 1.14527 v -0.820208 h 2.39637 V 30.8504 h 1.14527 1.14527 V 30.030192 H 31.6631 V 30.8504 h 1.14527 v 0.535781 h 0.820208 v 1.1774 H 32.80837 v 0.535781 0.535781 h 0.820208 v 1.1774 H 32.80837 v 0.535781 0.535781 h 0.820208 v 1.1774 H 32.80837 v 0.535781 0.535781 h 0.820208 v 1.1774 H 32.80837 v 0.535781 H 31.6631 v 0.820208 h -2.39637 v -0.820208 h -1.14527 -1.14527 v 0.820208 h -2.39637 v -0.820208 h -1.14527 -1.14527 v 0.820208 h -2.39637 v -0.820208 h -1.14527 -1.14527 v 0.820208 H 15.206 v -0.820208 h -1.14527 -1.14527 v 0.820208 H 10.51909 V 39.846248 H 9.37382 8.22855 v 0.820208 H 5.83218 V 39.846248 H 4.68691 3.54164 v 0.820208 H 1.14527 V 39.846248 H 0 v -0.535781 h -0.820208 v -1.1774 H 0 v -0.535781 -0.535781 h -0.820208 v -1.1774 H 0 v -0.535781 -0.535781 h -0.820208 v -1.1774 H 0 v -0.535781 -0.535781 h -0.820208 v -1.1774 H 0 V 30.8504" />
      <path
         style="fill:none;stroke:#0000ff;stroke-width:0.1;stroke-linecap:butt;stroke-linejoin:miter"
         id="box9587-longside2"
         d="M -0.820208,42.3069 V 41.486692 H 0 1.19818 V 42.3069 H 3.48872 V 41.486692 H 4.6869 5.88508 V 42.3069 H 8.17562 V 41.486692 H 9.3738 10.57198 V 42.3069 h 2.29054 v -0.820208 h 1.19818 1.19818 V 42.3069 h 2.29054 v -0.820208 h 1.19818 1.19818 V 42.3069 h 2.29054 v -0.820208 h 1.19818 1.19818 V 42.3069 h 2.29054 v -0.820208 h 1.19818 1.19818 V 42.3069 h 2.29054 v -0.820208 h 1.19818 0.820208 V 42.3069 43.180025 H 32.8083 v 1.64042 h 0.820208 v 0.873125 0.873125 H 32.8083 v 1.64042 h 0.820208 v 0.873125 0.873125 H 32.8083 v 1.64042 h 0.820208 v 0.873125 0.873125 H 32.8083 v 1.64042 h 0.820208 v 0.873125 0.873125 H 32.8083 v 1.64042 h 0.820208 v 0.873125 0.820208 H 32.8083 31.61012 V 59.24025 h -2.29054 v 0.820208 H 28.1214 26.92322 V 59.24025 h -2.29054 v 0.820208 H 23.4345 22.23632 V 59.24025 h -2.29054 v 0.820208 H 18.7476 17.54942 V 59.24025 h -2.29054 v 0.820208 H 14.0607 12.86252 V 59.24025 h -2.29054 v 0.820208 H 9.3738 8.17562 V 59.24025 H 5.88508 v 0.820208 H 4.6869 3.48872 V 59.24025 H 1.19818 v 0.820208 H 0 -0.820208 V 59.24025 58.367125 H 0 v -1.64042 H -0.820208 V 55.85358 54.980455 H 0 v -1.64042 H -0.820208 V 52.46691 51.593785 H 0 v -1.64042 H -0.820208 V 49.08024 48.207115 H 0 v -1.64042 H -0.820208 V 45.69357 44.820445 H 0 v -1.64042 H -0.820208 V 42.3069" />
      <path
         style="fill:none;stroke:#0000ff;stroke-width:0.1;stroke-linecap:butt;stroke-linejoin:miter"
         id="box9587-endface2"
         d="m 34.4488,0 h 0.820208 0.820208 v -0.820208 h 1.74625 V 0 h 0.820208 0.820208 v -0.820208 h 1.74625 V 0 h 0.820208 0.820208 v -0.820208 h 1.74625 V 0 h 0.820208 0.820208 v -0.820208 h 1.74625 V 0 h 0.820208 0.820208 v -0.820208 h 1.74625 V 0 h 0.820208 0.820208 v 0.588698 h -0.820208 v 1.07156 h 0.820208 v 0.588698 0.588698 h -0.820208 v 1.07156 h 0.820208 V 4.497912 5.08661 h -0.820208 v 1.07156 h 0.820208 v 0.588698 0.588698 h -0.820208 v 1.07156 h 0.820208 V 8.995824 H 52.202338 51.38213 V 9.816032 H 49.63588 V 8.995824 h -0.820208 -0.820208 v 0.820208 h -1.74625 V 8.995824 h -0.820208 -0.820208 v 0.820208 h -1.74625 V 8.995824 H 42.04234 41.222132 v 0.820208 h -1.74625 V 8.995824 h -0.820208 -0.820208 v 0.820208 h -1.74625 V 8.995824 H 35.269008 34.4488 V 8.407126 h 0.820208 V 7.335566 H 34.4488 V 6.746868 6.15817 h 0.820208 V 5.08661 H 34.4488 V 4.497912 3.909214 h 0.820208 V 2.837654 H 34.4488 V 2.248956 1.660258 h 0.820208 V 0.588698 H 34.4488 V 0" />
      <path
         style="fill:none;stroke:#0000ff;stroke-width:0.1;stroke-linecap:butt;stroke-linejoin:miter"
         id="box9587-endface1"
         d="m 34.4488,30.8504 h 0.820208 0.820208 v -0.820208 h 1.74625 V 30.8504 h 0.820208 0.820208 v -0.820208 h 1.74625 V 30.8504 h 0.820208 0.820208 v -0.820208 h 1.74625 V 30.8504 h 0.820208 0.820208 v -0.820208 h 1.74625 V 30.8504 h 0.820208 0.820208 v -0.820208 h 1.74625 V 30.8504 h 0.820208 0.820208 v 0.588698 h -0.820208 v 1.07156 h 0.820208 v 0.588698 0.588698 h -0.820208 v 1.07156 h 0.820208 v 0.588698 0.588698 h -0.820208 v 1.07156 h 0.820208 v 0.588698 0.588698 h -0.820208 v 1.07156 h 0.820208 v 0.588698 H 52.202338 51.38213 v 0.820208 h -1.74625 v -0.820208 h -0.820208 -0.820208 v 0.820208 h -1.74625 v -0.820208 h -0.820208 -0.820208 v 0.820208 h -1.74625 V 39.846224 H 42.04234 41.222132 v 0.820208 h -1.74625 v -0.820208 h -0.820208 -0.820208 v 0.820208 h -1.74625 V 39.846224 H 35.269008 34.4488 v -0.588698 h 0.820208 v -1.07156 H 34.4488 V 37.597268 37.00857 h 0.820208 V 35.93701 H 34.4488 v -0.588698 -0.588698 h 0.820208 v -1.07156 H 34.4488 v -0.588698 -0.588698 h 0.820208 v -1.07156 H 34.4488 V 30.8504" />
    </g>
  </g>
</svg>
